<svg width="33" height="31" viewBox="0 0 33 31" fill="none" xmlns="http://www.w3.org/2000/svg">
<path d="M21.0802 19.4233C19.8824 20.532 18.2581 21.1548 16.5645 21.1548C14.8709 21.1548 13.2466 20.532 12.0488 19.4233M11.7742 12.285H11.7902M21.3548 12.285H21.3708M30.9355 15.242C30.9355 16.9895 30.5638 18.7198 29.8416 20.3342C29.1193 21.9487 28.0608 23.4156 26.7263 24.6512C25.3919 25.8869 23.8076 26.867 22.064 27.5357C20.3205 28.2045 18.4517 28.5486 16.5645 28.5486C14.6773 28.5486 12.8085 28.2045 11.065 27.5357C9.32141 26.867 7.73717 25.8869 6.4027 24.6512C5.06823 23.4156 4.00968 21.9487 3.28747 20.3342C2.56526 18.7198 2.19354 16.9895 2.19354 15.242C2.19354 11.7129 3.70762 8.32831 6.4027 5.83284C9.09778 3.33737 12.7531 1.93542 16.5645 1.93542C20.3759 1.93542 24.0312 3.33737 26.7263 5.83284C29.4214 8.32831 30.9355 11.7129 30.9355 15.242Z" stroke="#4857EC" stroke-width="3" stroke-linecap="round" stroke-linejoin="round"/>
</svg>
